<svg width="211" height="71" viewBox="0 0 211 71" fill="none" xmlns="http://www.w3.org/2000/svg">
<path d="M90.2977 37.3327C90.2977 47.3769 82.4804 54.7783 72.8868 54.7783C63.2932 54.7783 55.476 47.3769 55.476 37.3327C55.476 27.2177 63.2932 19.8871 72.8868 19.8871C82.4804 19.8871 90.2977 27.2177 90.2977 37.3327ZM82.676 37.3327C82.676 31.0561 78.1453 26.7616 72.8868 26.7616C67.6283 26.7616 63.0976 31.0561 63.0976 37.3327C63.0976 43.5464 67.6283 47.9039 72.8868 47.9039C78.1453 47.9039 82.676 43.5386 82.676 37.3327Z" fill="#EA4335"/>
<path d="M127.858 37.3327C127.858 47.3769 120.041 54.7783 110.447 54.7783C100.854 54.7783 93.0363 47.3769 93.0363 37.3327C93.0363 27.2256 100.854 19.8871 110.447 19.8871C120.041 19.8871 127.858 27.2177 127.858 37.3327ZM120.236 37.3327C120.236 31.0561 115.706 26.7616 110.447 26.7616C105.189 26.7616 100.658 31.0561 100.658 37.3327C100.658 43.5464 105.189 47.9039 110.447 47.9039C115.706 47.9039 120.236 43.5386 120.236 37.3327Z" fill="#FBBC05"/>
<path d="M163.854 20.9411V52.2613C163.854 65.1449 156.294 70.4069 147.358 70.4069C138.946 70.4069 133.883 64.7517 131.974 60.1268L138.61 57.3503C139.791 60.1897 142.687 63.5404 147.35 63.5404C153.071 63.5404 156.615 59.9931 156.615 53.3153V50.8062H156.349C154.643 52.922 151.357 54.7704 147.21 54.7704C138.531 54.7704 130.581 47.1724 130.581 37.3956C130.581 27.5481 138.531 19.8871 147.21 19.8871C151.349 19.8871 154.636 21.7355 156.349 23.7884H156.615V20.949H163.854V20.9411ZM157.155 37.3956C157.155 31.2527 153.078 26.7615 147.89 26.7615C142.632 26.7615 138.226 31.2527 138.226 37.3956C138.226 43.4756 142.632 47.9039 147.89 47.9039C153.078 47.9039 157.155 43.4756 157.155 37.3956Z" fill="#4285F4"/>
<path d="M175.787 2.58295V53.7084H168.353V2.58295H175.787Z" fill="#34A853"/>
<path d="M204.756 43.0744L210.671 47.0385C208.762 49.878 204.161 54.7703 196.211 54.7703C186.351 54.7703 178.987 47.1093 178.987 37.3247C178.987 26.9502 186.413 19.8792 195.358 19.8792C204.364 19.8792 208.77 27.0839 210.21 30.9773L211 32.9594L187.799 42.6182C189.575 46.1183 192.337 47.9037 196.211 47.9037C200.092 47.9037 202.784 45.9846 204.756 43.0744ZM186.546 36.7977L202.056 30.3245C201.203 28.1457 198.636 26.6277 195.616 26.6277C191.742 26.6277 186.351 30.0649 186.546 36.7977Z" fill="#EA4335"/>
<path d="M27.3368 32.7942V25.3928H52.1502C52.3928 26.6828 52.518 28.2087 52.518 29.8604C52.518 35.4134 51.0077 42.28 46.1405 47.1723C41.4063 52.1275 35.3575 54.7703 27.3446 54.7703C12.4925 54.7703 0.00366211 42.6103 0.00366211 27.6817C0.00366211 12.7531 12.4925 0.593079 27.3446 0.593079C35.561 0.593079 41.4141 3.83364 45.8119 8.05739L40.616 13.28C37.4625 10.3069 33.19 7.99447 27.3368 7.99447C16.4912 7.99447 8.00875 16.7802 8.00875 27.6817C8.00875 38.5832 16.4912 47.3689 27.3368 47.3689C34.3715 47.3689 38.378 44.5295 40.9446 41.9496C43.0261 39.8574 44.3955 36.8685 44.9354 32.7864L27.3368 32.7942Z" fill="#4285F4"/>
</svg>
